#!OML:ASF Y:\EmotionMaleHayes\Project 1\Capture day 1\Session 1\Male1.ASF
:FULLY-SPECIFIED
:DEGREES
207
root -0.559512 17.2689 1.2861 -51.8449 56.5924 -56.4905
lowerback 25.0546 -0.49325 -12.7891
upperback 7.8933 -3.54011 -6.33632
thorax -4.65472 -1.49565 1.25704
lowerneck -17.7481 11.7355 6.83676
upperneck 10.4881 14.568 -2.17284
head 6.68953 7.12369 -0.122011
rclavicle 4.77083e-014 6.67916e-014
rhumerus -52.4782 -37.0857 5.24501
rradius 74.4335
rwrist -74.6224
rhand -30.9922 -47.0886
rfingers 7.12502
rthumb -4.27559 -77.0255
lclavicle 4.77083e-014 6.67916e-014
lhumerus -4.56713 -44.3748 87.6543
lradius 60.8075
lwrist -3.13297
lhand -26.2404 -48.7818
lfingers 7.12502
lthumb 0.313551 -18.8022
rfemur -19.2247 -25.1816 2.80759
rtibia 30.1241
rfoot -16.7181 -25.9977
rtoes 32.7944
lfemur -14.5466 34.6163 10.509
ltibia 51.3872
lfoot -20.2986 10.6485
ltoes 5.5021
208
root -0.344989 17.4104 1.19013 -51.4942 56.9472 -55.6036
lowerback 24.8289 -0.290628 -13.2408
upperback 7.78268 -3.37189 -6.5794
thorax -4.66265 -1.40637 1.18539
lowerneck -17.9725 11.5529 6.53372
upperneck 11.1089 14.3449 -1.80892
head 6.86986 7.02893 0.0375267
rclavicle 4.92986e-014 5.40694e-014
rhumerus -51.3628 -36.4719 4.56189
rradius 75.1365
rwrist -75.2671
rhand -30.0497 -46.78
rfingers 7.12502
rthumb -3.36543 -76.7332
lclavicle 4.92986e-014 5.40694e-014
lhumerus -6.19147 -44.5619 88.8619
lradius 61.9782
lwrist -3.07344
lhand -27.3628 -49.014
lfingers 7.12502
lthumb -0.770471 -19.0357
rfemur -18.9751 -24.6559 1.90017
rtibia 30.1736
rfoot -16.8096 -25.0871
rtoes 32.7649
lfemur -13.6244 34.2582 10.417
ltibia 51.9856
lfoot -16.785 9.93632
ltoes 4.40695
209
root -0.136757 17.5524 1.09327 -51.5857 57.6886 -55.2871
lowerback 24.7568 -0.218112 -13.7259
upperback 7.6123 -3.41023 -6.78733
thorax -4.78774 -1.40722 1.22898
lowerneck -17.8893 11.317 6.27049
upperneck 11.6217 14.0585 -1.44161
head 6.96807 6.91269 0.164629
rclavicle -9.06458e-014 -5.40694e-014
rhumerus -50.5806 -35.811 4.24279
rradius 76.0599
rwrist -75.7248
rhand -28.9543 -46.4173
rfingers 7.12502
rthumb -2.30761 -76.3846
lclavicle -9.06458e-014 -5.40694e-014
lhumerus -8.12615 -44.4452 90.2542
lradius 63.1684
lwrist -2.98905
lhand -28.1923 -49.2441
lfingers 7.12502
lthumb -1.57166 -19.2702
rfemur -18.4428 -24.3881 0.744299
rtibia 30.0861
rfoot -17.162 -24.5262
rtoes 33.0322
lfemur -13.3591 33.6583 9.94815
ltibia 52.7318
lfoot -12.629 9.1391
ltoes 4.58356
210
root 0.065924 17.6925 1.00039 -52.2896 58.5515 -55.6972
lowerback 24.8133 -0.279816 -14.0558
upperback 7.45038 -3.60345 -6.92959
thorax -4.95884 -1.47954 1.30438
lowerneck -17.5517 11.0886 5.93221
upperneck 11.8659 13.8007 -1.02206
head 6.93013 6.81796 0.29924
rclavicle 5.88403e-014 3.18055e-014
rhumerus -49.4002 -35.453 3.87568
rradius 76.6101
rwrist -75.7358
rhand -27.8318 -45.8677
rfingers 7.12502
rthumb -1.22348 -75.8439
lclavicle 5.88403e-014 3.18055e-014
lhumerus -9.9133 -44.1653 91.463
lradius 64.196
lwrist -2.89185
lhand -29.0445 -49.3539
lfingers 7.12502
lthumb -2.39466 -19.3876
rfemur -17.6727 -24.3811 -0.289611
rtibia 29.9039
rfoot -17.5537 -24.4534
rtoes 32.8891
lfemur -13.4743 32.9291 9.60621
ltibia 53.4289
lfoot -8.14621 8.11565
ltoes 4.30656
211
root 0.256543 17.8292 0.916929 -53.4395 59.0407 -56.7707
lowerback 24.9217 -0.340186 -13.9457
upperback 7.25642 -3.70932 -6.95044
thorax -5.2329 -1.50814 1.2554
lowerneck -17.4543 10.915 5.71232
upperneck 12.1719 13.5861 -0.699289
head 6.96953 6.73604 0.409085
rclavicle -9.85972e-014 -1.11319e-013
rhumerus -48.0835 -35.1154 3.5667
rradius 76.7385
rwrist -75.2563
rhand -26.6098 -44.7317
rfingers 7.12502
rthumb -0.0432369 -74.7114
lclavicle -9.85972e-014 -1.11319e-013
lhumerus -11.7419 -43.9781 92.646
lradius 65.148
lwrist -2.96432
lhand -29.3152 -49.1452
lfingers 7.12502
lthumb -2.65608 -19.1819
rfemur -17.007 -24.0878 -0.612633
rtibia 29.5547
rfoot -18.0739 -24.8468
rtoes 33.4295
lfemur -13.9459 32.4118 9.9262
ltibia 54.3262
lfoot -4.02116 6.90173
ltoes 4.46654
212
root 0.455011 17.9615 0.833075 -54.8083 58.8169 -58.0495
lowerback 25.0075 -0.277696 -13.2997
upperback 7.0096 -3.53945 -6.83561
thorax -5.62287 -1.40723 0.991542
lowerneck -17.2301 10.6288 5.47303
upperneck 12.46 13.2157 -0.280737
head 6.9717 6.5904 0.525818
rclavicle 1.74931e-014 2.54444e-014
rhumerus -47.2653 -34.4732 3.69859
rradius 76.9335
rwrist -74.4621
rhand -25.2117 -43.4958
rfingers 7.12502
rthumb 1.30709 -73.4716
lclavicle 1.74931e-014 2.54444e-014
lhumerus -13.9188 -43.751 94.0239
lradius 66.1636
lwrist -3.0566
lhand -29.0108 -48.8106
lfingers 7.12502
lthumb -2.36219 -18.8439
rfemur -16.3476 -23.3554 -0.133882
rtibia 28.9733
rfoot -18.5646 -25.348
rtoes 34.2869
lfemur -14.0735 32.1992 11.2483
ltibia 55.151
lfoot -0.742593 5.36659
ltoes 7.25891
213
root 0.656659 18.0875 0.749576 -56.3361 58.6643 -59.4931
lowerback 25.0359 -0.267931 -12.8959
upperback 7.03136 -3.42187 -6.59954
thorax -5.64154 -1.35709 1.00151
lowerneck -17.9865 10.4769 5.12029
upperneck 12.9498 12.9795 0.20268
head 7.19319 6.49725 0.755766
rclavicle -2.38542e-014 -1.90833e-014
rhumerus -46.2522 -34.3449 3.78653
rradius 77.1744
rwrist -73.2797
rhand -24.1991 -42.5332
rfingers 7.12502
rthumb 2.28509 -72.5007
lclavicle -2.38542e-014 -1.90833e-014
lhumerus -15.5221 -42.9655 94.8705
lradius 67.8534
lwrist -3.05896
lhand -28.5275 -47.9066
lfingers 7.12502
lthumb -1.89533 -17.9353
rfemur -15.5287 -22.7132 0.270714
rtibia 28.3214
rfoot -19.3381 -25.8209
rtoes 35.4952
lfemur -14.1924 31.9433 12.4863
ltibia 55.7059
lfoot 0.969145 3.30478
ltoes 9.36293
214
root 0.869597 18.2008 0.667249 -57.7117 58.964 -60.6846
lowerback 25.0344 -0.196469 -12.6467
upperback 6.97686 -3.27532 -6.616
thorax -5.73733 -1.27967 0.806605
lowerneck -18.0719 10.2203 5.04352
upperneck 13.1323 12.5813 0.631429
head 7.22587 6.34652 0.864025
rclavicle -3.18055e-015 0
rhumerus -45.1716 -34.099 3.9096
rradius 76.9751
rwrist -71.5148
rhand -23.7851 -41.8788
rfingers 7.12502
rthumb 2.68489 -71.8417
lclavicle -3.18055e-015 0
lhumerus -17.0636 -43.0299 95.6171
lradius 68.783
lwrist -2.74824
lhand -28.245 -47.1981
lfingers 7.12502
lthumb -1.62252 -17.2245
rfemur -14.4753 -22.2973 -0.0142835
rtibia 27.7029
rfoot -20.1903 -26.1953
rtoes 36.6087
lfemur -14.0625 31.6701 13.1562
ltibia 55.6676
lfoot 1.15601 1.69372
ltoes 8.50365
215
root 1.08568 18.2972 0.583747 -59.0345 59.407 -61.9434
lowerback 24.9397 -0.160109 -12.5167
upperback 6.85206 -3.19825 -6.5889
thorax -5.84632 -1.23496 0.743025
lowerneck -17.8869 9.95223 4.90159
upperneck 13.1139 12.2225 0.888652
head 7.15776 6.19684 0.911526
rclavicle 2.70347e-014 6.36111e-015
rhumerus -44.6263 -33.325 4.48934
rradius 77.3255
rwrist -70.1077
rhand -23.5981 -41.5602
rfingers 7.12502
rthumb 2.8655 -71.5207
lclavicle 2.70347e-014 6.36111e-015
lhumerus -18.8678 -42.7711 96.5205
lradius 69.741
lwrist -2.76112
lhand -27.6082 -46.4239
lfingers 7.12502
lthumb -1.00752 -16.4465
rfemur -13.5424 -22.1513 -0.451475
rtibia 27.1517
rfoot -20.2924 -26.6874
rtoes 36.1427
lfemur -13.9471 31.5739 13.5979
ltibia 55.174
lfoot 0.66194 1.30886
ltoes 8.32991
216
root 1.29739 18.3777 0.499839 -60.317 59.7894 -63.388
lowerback 24.6351 -0.190078 -12.3894
upperback 6.81063 -3.15516 -6.49507
thorax -5.74701 -1.22115 0.760835
lowerneck -18.0631 9.73786 4.85167
upperneck 13.1238 11.9237 0.919335
head 7.18075 6.0536 0.901955
rclavicle 4.6118e-014 5.40694e-014
rhumerus -43.7461 -33.0553 4.93005
rradius 77.4447
rwrist -68.2505
rhand -23.1494 -40.9735
rfingers 7.12502
rthumb 3.29884 -70.9277
lclavicle 4.6118e-014 5.40694e-014
lhumerus -20.3339 -42.4214 97.1214
lradius 70.8379
lwrist -2.91448
lhand -26.9777 -45.2385
lfingers 7.12502
lthumb -0.398511 -15.2591
rfemur -12.9358 -22.0517 -0.711844
rtibia 26.7552
rfoot -20.1615 -27.1598
rtoes 35.2672
lfemur -14.0809 31.6268 13.9747
ltibia 54.3473
lfoot -1.09045 2.29624
ltoes 6.9897
217
root 1.50341 18.4465 0.418659 -61.8515 59.9661 -65.2136
lowerback 24.2164 -0.271418 -12.1213
upperback 6.86678 -3.10813 -6.30513
thorax -5.48452 -1.21864 0.80422
lowerneck -18.4846 9.5594 4.85867
upperneck 13.1616 11.6623 0.826844
head 7.26515 5.91621 0.862515
rclavicle -1.11319e-014 4.77083e-014
rhumerus -42.7292 -33.0865 5.33492
rradius 77.4845
rwrist -66.3769
rhand -22.6482 -40.1762
rfingers 7.12502
rthumb 3.78278 -70.1224
lclavicle -1.11319e-014 4.77083e-014
lhumerus -21.4573 -42.1287 97.4894
lradius 71.7803
lwrist -3.01817
lhand -26.4076 -44.28
lfingers 7.12502
lthumb 0.152081 -14.3003
rfemur -12.3691 -21.8786 -0.681942
rtibia 26.3467
rfoot -20.4672 -27.3735
rtoes 35.7465
lfemur -14.2085 31.722 14.6141
ltibia 52.9777
lfoot -1.62031 4.89061
ltoes 11.7973
218
root 1.70741 18.5043 0.335678 -63.4793 60.0598 -67.1049
lowerback 23.8683 -0.330894 -11.7666
upperback 6.90695 -3.03103 -6.09858
thorax -5.28378 -1.19834 0.810666
lowerneck -18.9608 9.32761 4.75111
upperneck 13.282 11.3385 0.842127
head 7.37129 5.75375 0.870409
rclavicle 0 -5.725e-014
rhumerus -41.715 -33.1426 5.80406
rradius 77.4659
rwrist -64.4967
rhand -22.5779 -39.8439
rfingers 7.12502
rthumb 3.85076 -69.7889
lclavicle 0 -5.725e-014
lhumerus -22.7345 -41.6808 97.914
lradius 72.7962
lwrist -3.35091
lhand -26.011 -43.3698
lfingers 7.12502
lthumb 0.535148 -13.3907
rfemur -11.6749 -21.7436 -0.634651
rtibia 25.7797
rfoot -20.6001 -27.3508
rtoes 36.0975
lfemur -14.1518 31.8814 15.3636
ltibia 51.0039
lfoot -3.40975 6.75667
ltoes 13.6992
219
root 1.90726 18.5521 0.252805 -65.0037 60.2311 -68.84
lowerback 23.7093 -0.306964 -11.4708
upperback 6.82304 -2.9157 -5.97764
thorax -5.32151 -1.14301 0.748526
lowerneck -19.3181 9.02934 4.73838
upperneck 13.4777 10.9078 0.868681
head 7.48697 5.54819 0.850612
rclavicle 3.97569e-014 4.45278e-014
rhumerus -40.8877 -32.9441 6.33664
rradius 77.406
rwrist -62.6212
rhand -22.7683 -39.7135
rfingers 7.12502
rthumb 3.66688 -69.6617
lclavicle 3.97569e-014 4.45278e-014
lhumerus -24.3062 -41.1686 98.387
lradius 74.0285
lwrist -3.98604
lhand -25.3827 -42.0275
lfingers 7.12502
lthumb 1.14196 -12.0509
rfemur -10.9814 -21.5555 -0.706449
rtibia 25.1774
rfoot -20.0731 -27.3487
rtoes 34.6988
lfemur -14.1065 32.0833 15.929
ltibia 48.654
lfoot -5.3802 8.66854
ltoes 12.1766
